<?xml version="1.0" encoding="utf-8" standalone="no"?>
<!DOCTYPE svg PUBLIC "-//W3C//DTD SVG 1.1//EN"
  "http://www.w3.org/Graphics/SVG/1.1/DTD/svg11.dtd">
<svg xmlns:xlink="http://www.w3.org/1999/xlink" width="432pt" height="216pt" viewBox="0 0 432 216" xmlns="http://www.w3.org/2000/svg" version="1.1">
 <metadata>
  <rdf:RDF xmlns:dc="http://purl.org/dc/elements/1.1/" xmlns:cc="http://creativecommons.org/ns#" xmlns:rdf="http://www.w3.org/1999/02/22-rdf-syntax-ns#">
   <cc:Work>
    <dc:type rdf:resource="http://purl.org/dc/dcmitype/StillImage"/>
    <dc:date>2025-04-09T03:18:27.469150</dc:date>
    <dc:format>image/svg+xml</dc:format>
    <dc:creator>
     <cc:Agent>
      <dc:title>Matplotlib v3.9.2, https://matplotlib.org/</dc:title>
     </cc:Agent>
    </dc:creator>
   </cc:Work>
  </rdf:RDF>
 </metadata>
 <defs>
  <style type="text/css">*{stroke-linejoin: round; stroke-linecap: butt}</style>
 </defs>
 <g id="figure_1">
  <g id="patch_1">
   <path d="M 0 216 
L 432 216 
L 432 0 
L 0 0 
z
" style="fill: #ffffff"/>
  </g>
  <g id="axes_1">
   <g id="patch_2">
    <path d="M 58.9 205.2 
L 421.2 205.2 
L 421.2 43.2 
L 58.9 43.2 
z
" style="fill: #ffffff"/>
   </g>
   <g id="patch_3">
    <path d="M 58.9 197.836364 
L 72.219931 197.836364 
L 72.219931 163.85035 
L 58.9 163.85035 
z
" clip-path="url(#pfb6a051f16)" style="fill: #87ceeb"/>
   </g>
   <g id="patch_4">
    <path d="M 58.9 84.54965 
L 93.290962 84.54965 
L 93.290962 50.563636 
L 58.9 50.563636 
z
" clip-path="url(#pfb6a051f16)" style="fill: #f08080"/>
   </g>
   <g id="matplotlib.axis_1"/>
   <g id="matplotlib.axis_2">
    <g id="ytick_1">
     <g id="line2d_1">
      <defs>
       <path id="med5b2f2e72" d="M 0 0 
L -3.5 0 
" style="stroke: #000000; stroke-width: 0.8"/>
      </defs>
      <g>
       <use xlink:href="#med5b2f2e72" x="58.9" y="180.843357" style="stroke: #000000; stroke-width: 0.8"/>
      </g>
     </g>
     <g id="text_1">
      <!-- ChatGPT -->
      <g transform="translate(10.789062 184.413669) scale(0.1 -0.1)">
       <defs>
        <path id="HelveticaNeue-43" d="M 3712 3194 
L 4320 3194 
Q 4269 3558 4102 3836 
Q 3936 4115 3686 4300 
Q 3437 4486 3117 4582 
Q 2797 4678 2438 4678 
Q 1914 4678 1507 4489 
Q 1101 4301 829 3974 
Q 557 3648 416 3209 
Q 275 2771 275 2272 
Q 275 1773 406 1337 
Q 538 902 800 582 
Q 1062 262 1459 80 
Q 1856 -102 2387 -102 
Q 3264 -102 3769 378 
Q 4275 858 4365 1722 
L 3757 1722 
Q 3738 1440 3642 1197 
Q 3546 954 3376 778 
Q 3206 602 2972 502 
Q 2739 403 2438 403 
Q 2029 403 1734 556 
Q 1440 710 1251 969 
Q 1062 1229 972 1577 
Q 883 1926 883 2317 
Q 883 2675 972 3008 
Q 1062 3341 1251 3600 
Q 1440 3859 1731 4012 
Q 2022 4166 2432 4166 
Q 2912 4166 3261 3923 
Q 3610 3680 3712 3194 
z
" transform="scale(0.015625)"/>
        <path id="HelveticaNeue-68" d="M 410 4570 
L 410 0 
L 954 0 
L 954 1869 
Q 954 2093 1014 2281 
Q 1075 2470 1196 2611 
Q 1318 2752 1500 2829 
Q 1683 2906 1933 2906 
Q 2246 2906 2425 2726 
Q 2605 2547 2605 2240 
L 2605 0 
L 3149 0 
L 3149 2176 
Q 3149 2445 3094 2665 
Q 3040 2886 2905 3046 
Q 2771 3206 2553 3296 
Q 2336 3386 2010 3386 
Q 1862 3386 1705 3354 
Q 1549 3322 1405 3254 
Q 1261 3187 1145 3081 
Q 1030 2976 966 2822 
L 954 2822 
L 954 4570 
L 410 4570 
z
" transform="scale(0.015625)"/>
        <path id="HelveticaNeue-61" d="M 3341 13 
Q 3200 -70 2950 -70 
Q 2739 -70 2614 48 
Q 2490 166 2490 435 
Q 2266 166 1968 48 
Q 1670 -70 1325 -70 
Q 1101 -70 899 -19 
Q 698 32 550 141 
Q 403 250 316 426 
Q 230 602 230 851 
Q 230 1133 326 1312 
Q 422 1491 579 1603 
Q 736 1715 937 1772 
Q 1139 1830 1350 1869 
Q 1574 1914 1776 1936 
Q 1978 1958 2131 2000 
Q 2285 2042 2374 2122 
Q 2464 2202 2464 2355 
Q 2464 2534 2397 2643 
Q 2330 2752 2224 2809 
Q 2118 2867 1987 2886 
Q 1856 2906 1728 2906 
Q 1382 2906 1152 2774 
Q 922 2643 902 2278 
L 358 2278 
Q 371 2586 486 2797 
Q 602 3008 794 3139 
Q 986 3270 1232 3328 
Q 1478 3386 1760 3386 
Q 1984 3386 2205 3354 
Q 2426 3322 2605 3222 
Q 2784 3123 2893 2944 
Q 3002 2765 3002 2477 
L 3002 774 
Q 3002 582 3024 492 
Q 3046 403 3174 403 
Q 3245 403 3341 435 
L 3341 13 
z
M 2458 1709 
Q 2355 1632 2188 1597 
Q 2022 1562 1840 1539 
Q 1658 1517 1472 1488 
Q 1286 1459 1139 1395 
Q 992 1331 899 1212 
Q 806 1094 806 890 
Q 806 755 860 662 
Q 915 570 1001 512 
Q 1088 454 1203 428 
Q 1318 403 1446 403 
Q 1715 403 1907 476 
Q 2099 550 2220 662 
Q 2342 774 2400 905 
Q 2458 1037 2458 1152 
L 2458 1709 
z
" transform="scale(0.015625)"/>
        <path id="HelveticaNeue-74" d="M 1165 3309 
L 1165 4301 
L 621 4301 
L 621 3309 
L 58 3309 
L 58 2829 
L 621 2829 
L 621 723 
Q 621 493 665 352 
Q 710 211 803 134 
Q 896 58 1046 29 
Q 1197 0 1408 0 
L 1824 0 
L 1824 480 
L 1574 480 
Q 1446 480 1366 489 
Q 1286 499 1241 531 
Q 1197 563 1181 620 
Q 1165 678 1165 774 
L 1165 2829 
L 1824 2829 
L 1824 3309 
L 1165 3309 
z
" transform="scale(0.015625)"/>
        <path id="HelveticaNeue-47" d="M 3917 570 
L 4077 0 
L 4461 0 
L 4461 2406 
L 2458 2406 
L 2458 1894 
L 3917 1894 
Q 3930 1581 3834 1309 
Q 3738 1037 3549 835 
Q 3360 634 3085 518 
Q 2810 403 2451 403 
Q 2067 403 1776 553 
Q 1485 704 1286 957 
Q 1088 1210 985 1539 
Q 883 1869 883 2227 
Q 883 2592 972 2941 
Q 1062 3290 1251 3562 
Q 1440 3834 1737 4000 
Q 2035 4166 2451 4166 
Q 2707 4166 2934 4105 
Q 3162 4045 3341 3923 
Q 3520 3802 3641 3613 
Q 3763 3424 3808 3162 
L 4416 3162 
Q 4352 3565 4176 3849 
Q 4000 4134 3741 4320 
Q 3482 4506 3152 4592 
Q 2822 4678 2451 4678 
Q 1907 4678 1500 4476 
Q 1094 4275 822 3936 
Q 550 3597 412 3145 
Q 275 2694 275 2195 
Q 275 1747 422 1331 
Q 570 915 851 595 
Q 1133 275 1536 86 
Q 1939 -102 2451 -102 
Q 2854 -102 3251 54 
Q 3648 211 3917 570 
z
" transform="scale(0.015625)"/>
        <path id="HelveticaNeue-50" d="M 1107 2381 
L 1107 4058 
L 2298 4058 
Q 2816 4058 3056 3843 
Q 3296 3629 3296 3219 
Q 3296 2810 3056 2592 
Q 2816 2374 2298 2381 
L 1107 2381 
z
M 499 4570 
L 499 0 
L 1107 0 
L 1107 1869 
L 2502 1869 
Q 3194 1862 3549 2220 
Q 3904 2579 3904 3219 
Q 3904 3859 3549 4214 
Q 3194 4570 2502 4570 
L 499 4570 
z
" transform="scale(0.015625)"/>
        <path id="HelveticaNeue-54" d="M 1536 4058 
L 1536 0 
L 2144 0 
L 2144 4058 
L 3667 4058 
L 3667 4570 
L 13 4570 
L 13 4058 
L 1536 4058 
z
" transform="scale(0.015625)"/>
       </defs>
       <use xlink:href="#HelveticaNeue-43"/>
       <use xlink:href="#HelveticaNeue-68" x="72.199982"/>
       <use xlink:href="#HelveticaNeue-61" x="127.799973"/>
       <use xlink:href="#HelveticaNeue-74" x="181.499969"/>
       <use xlink:href="#HelveticaNeue-47" x="212.999954"/>
       <use xlink:href="#HelveticaNeue-50" x="288.899948"/>
       <use xlink:href="#HelveticaNeue-54" x="353.699936"/>
      </g>
     </g>
    </g>
    <g id="ytick_2">
     <g id="line2d_2">
      <g>
       <use xlink:href="#med5b2f2e72" x="58.9" y="67.556643" style="stroke: #000000; stroke-width: 0.8"/>
      </g>
     </g>
     <g id="text_2">
      <!-- Claude -->
      <g transform="translate(20.229688 71.126956) scale(0.1 -0.1)">
       <defs>
        <path id="HelveticaNeue-6c" d="M 442 4570 
L 442 0 
L 986 0 
L 986 4570 
L 442 4570 
z
" transform="scale(0.015625)"/>
        <path id="HelveticaNeue-75" d="M 3149 0 
L 3149 3309 
L 2605 3309 
L 2605 1440 
Q 2605 1216 2544 1027 
Q 2483 838 2361 697 
Q 2240 557 2057 480 
Q 1875 403 1626 403 
Q 1312 403 1133 582 
Q 954 762 954 1069 
L 954 3309 
L 410 3309 
L 410 1133 
Q 410 864 464 643 
Q 518 422 652 262 
Q 787 102 1004 16 
Q 1222 -70 1549 -70 
Q 1914 -70 2182 74 
Q 2451 218 2624 525 
L 2637 525 
L 2637 0 
L 3149 0 
z
" transform="scale(0.015625)"/>
        <path id="HelveticaNeue-64" d="M 806 1626 
Q 806 1869 857 2099 
Q 909 2330 1024 2509 
Q 1139 2688 1331 2797 
Q 1523 2906 1798 2906 
Q 2080 2906 2278 2800 
Q 2477 2694 2601 2521 
Q 2726 2349 2784 2121 
Q 2842 1894 2842 1651 
Q 2842 1421 2787 1197 
Q 2733 973 2611 797 
Q 2490 621 2298 512 
Q 2106 403 1830 403 
Q 1568 403 1373 505 
Q 1178 608 1053 781 
Q 928 954 867 1174 
Q 806 1395 806 1626 
z
M 3366 0 
L 3366 4570 
L 2822 4570 
L 2822 2867 
L 2810 2867 
Q 2720 3014 2589 3113 
Q 2458 3213 2310 3273 
Q 2163 3334 2016 3360 
Q 1869 3386 1741 3386 
Q 1363 3386 1078 3248 
Q 794 3110 605 2876 
Q 416 2643 323 2329 
Q 230 2016 230 1664 
Q 230 1312 326 998 
Q 422 685 611 448 
Q 800 211 1085 70 
Q 1370 -70 1754 -70 
Q 2099 -70 2387 51 
Q 2675 173 2810 448 
L 2822 448 
L 2822 0 
L 3366 0 
z
" transform="scale(0.015625)"/>
        <path id="HelveticaNeue-65" d="M 2707 1971 
L 806 1971 
Q 819 2163 889 2332 
Q 960 2502 1081 2630 
Q 1203 2758 1372 2832 
Q 1542 2906 1754 2906 
Q 1958 2906 2128 2832 
Q 2298 2758 2422 2633 
Q 2547 2509 2620 2336 
Q 2694 2163 2707 1971 
z
M 3232 1050 
L 2694 1050 
Q 2624 723 2403 563 
Q 2182 403 1837 403 
Q 1568 403 1369 492 
Q 1171 582 1043 732 
Q 915 883 857 1078 
Q 800 1274 806 1491 
L 3283 1491 
Q 3296 1792 3229 2125 
Q 3162 2458 2986 2739 
Q 2810 3021 2518 3203 
Q 2227 3386 1786 3386 
Q 1446 3386 1161 3258 
Q 877 3130 669 2899 
Q 461 2669 345 2355 
Q 230 2042 230 1664 
Q 243 1286 342 966 
Q 442 646 640 416 
Q 838 186 1129 58 
Q 1421 -70 1818 -70 
Q 2381 -70 2752 211 
Q 3123 493 3232 1050 
z
" transform="scale(0.015625)"/>
       </defs>
       <use xlink:href="#HelveticaNeue-43"/>
       <use xlink:href="#HelveticaNeue-6c" x="72.199982"/>
       <use xlink:href="#HelveticaNeue-61" x="94.399979"/>
       <use xlink:href="#HelveticaNeue-75" x="148.099976"/>
       <use xlink:href="#HelveticaNeue-64" x="203.699966"/>
       <use xlink:href="#HelveticaNeue-65" x="262.999954"/>
      </g>
     </g>
    </g>
   </g>
   <g id="text_3">
    <!-- -0.06 -->
    <g transform="translate(96.913962 69.624768) scale(0.08 -0.08)">
     <defs>
      <path id="HelveticaNeue-2d" d="M 320 2035 
L 320 1523 
L 2170 1523 
L 2170 2035 
L 320 2035 
z
" transform="scale(0.015625)"/>
      <path id="HelveticaNeue-30" d="M 845 2234 
Q 845 2400 848 2601 
Q 851 2803 880 3004 
Q 909 3206 963 3398 
Q 1018 3590 1123 3734 
Q 1229 3878 1389 3968 
Q 1549 4058 1779 4058 
Q 2010 4058 2170 3968 
Q 2330 3878 2435 3734 
Q 2541 3590 2595 3398 
Q 2650 3206 2678 3004 
Q 2707 2803 2710 2601 
Q 2714 2400 2714 2234 
Q 2714 1978 2698 1661 
Q 2682 1344 2595 1065 
Q 2509 787 2317 595 
Q 2125 403 1779 403 
Q 1434 403 1242 595 
Q 1050 787 963 1065 
Q 877 1344 861 1661 
Q 845 1978 845 2234 
z
M 269 2227 
Q 269 1978 281 1709 
Q 294 1440 345 1184 
Q 397 928 493 701 
Q 589 474 755 301 
Q 922 128 1174 29 
Q 1427 -70 1779 -70 
Q 2138 -70 2387 29 
Q 2637 128 2803 301 
Q 2970 474 3066 701 
Q 3162 928 3213 1184 
Q 3264 1440 3277 1709 
Q 3290 1978 3290 2227 
Q 3290 2477 3277 2745 
Q 3264 3014 3213 3270 
Q 3162 3526 3066 3756 
Q 2970 3987 2803 4160 
Q 2637 4333 2384 4435 
Q 2131 4538 1779 4538 
Q 1427 4538 1174 4435 
Q 922 4333 755 4160 
Q 589 3987 493 3756 
Q 397 3526 345 3270 
Q 294 3014 281 2745 
Q 269 2477 269 2227 
z
" transform="scale(0.015625)"/>
      <path id="HelveticaNeue-2e" d="M 531 710 
L 531 0 
L 1242 0 
L 1242 710 
L 531 710 
z
" transform="scale(0.015625)"/>
      <path id="HelveticaNeue-36" d="M 2650 3379 
L 3194 3379 
Q 3142 3942 2809 4240 
Q 2477 4538 1914 4538 
Q 1427 4538 1107 4333 
Q 787 4128 595 3789 
Q 403 3450 323 3011 
Q 243 2573 243 2106 
Q 243 1747 297 1363 
Q 352 979 518 659 
Q 685 339 992 134 
Q 1299 -70 1805 -70 
Q 2234 -70 2525 74 
Q 2816 218 2992 438 
Q 3168 659 3245 928 
Q 3322 1197 3322 1446 
Q 3322 1760 3226 2029 
Q 3130 2298 2954 2496 
Q 2778 2694 2518 2806 
Q 2259 2918 1933 2918 
Q 1562 2918 1277 2777 
Q 992 2637 800 2323 
L 787 2336 
Q 794 2598 838 2899 
Q 883 3200 1001 3459 
Q 1120 3718 1331 3888 
Q 1542 4058 1888 4058 
Q 2214 4058 2412 3872 
Q 2611 3686 2650 3379 
z
M 1830 2438 
Q 2061 2438 2233 2355 
Q 2406 2272 2521 2134 
Q 2637 1997 2691 1808 
Q 2746 1619 2746 1408 
Q 2746 1210 2685 1027 
Q 2624 845 2509 704 
Q 2394 563 2224 483 
Q 2054 403 1830 403 
Q 1606 403 1430 483 
Q 1254 563 1136 697 
Q 1018 832 954 1017 
Q 890 1203 890 1414 
Q 890 1626 950 1814 
Q 1011 2003 1132 2140 
Q 1254 2278 1427 2358 
Q 1600 2438 1830 2438 
z
" transform="scale(0.015625)"/>
     </defs>
     <use xlink:href="#HelveticaNeue-2d"/>
     <use xlink:href="#HelveticaNeue-30" x="38.899994"/>
     <use xlink:href="#HelveticaNeue-2e" x="94.499985"/>
     <use xlink:href="#HelveticaNeue-30" x="122.299973"/>
     <use xlink:href="#HelveticaNeue-36" x="177.899963"/>
    </g>
   </g>
  </g>
  <g id="text_4">
   <!-- Contest 729: Claude won -->
   <g transform="translate(147.8775 8.64) scale(0.12 -0.12)">
    <defs>
     <path id="HelveticaNeue-6f" d="M 806 1651 
Q 806 1952 886 2185 
Q 966 2419 1107 2579 
Q 1248 2739 1437 2822 
Q 1626 2906 1837 2906 
Q 2048 2906 2237 2822 
Q 2426 2739 2566 2579 
Q 2707 2419 2787 2185 
Q 2867 1952 2867 1651 
Q 2867 1350 2787 1116 
Q 2707 883 2566 726 
Q 2426 570 2237 486 
Q 2048 403 1837 403 
Q 1626 403 1437 486 
Q 1248 570 1107 726 
Q 966 883 886 1116 
Q 806 1350 806 1651 
z
M 230 1651 
Q 230 1286 332 972 
Q 435 659 640 425 
Q 845 192 1145 61 
Q 1446 -70 1837 -70 
Q 2234 -70 2531 61 
Q 2829 192 3033 425 
Q 3238 659 3340 972 
Q 3443 1286 3443 1651 
Q 3443 2016 3340 2333 
Q 3238 2650 3033 2883 
Q 2829 3117 2531 3251 
Q 2234 3386 1837 3386 
Q 1446 3386 1145 3251 
Q 845 3117 640 2883 
Q 435 2650 332 2333 
Q 230 2016 230 1651 
z
" transform="scale(0.015625)"/>
     <path id="HelveticaNeue-6e" d="M 410 3309 
L 410 0 
L 954 0 
L 954 1869 
Q 954 2093 1014 2281 
Q 1075 2470 1196 2611 
Q 1318 2752 1500 2829 
Q 1683 2906 1933 2906 
Q 2246 2906 2425 2726 
Q 2605 2547 2605 2240 
L 2605 0 
L 3149 0 
L 3149 2176 
Q 3149 2445 3094 2665 
Q 3040 2886 2905 3046 
Q 2771 3206 2553 3296 
Q 2336 3386 2010 3386 
Q 1274 3386 934 2784 
L 922 2784 
L 922 3309 
L 410 3309 
z
" transform="scale(0.015625)"/>
     <path id="HelveticaNeue-73" d="M 742 1043 
L 198 1043 
Q 211 736 326 521 
Q 442 307 634 176 
Q 826 45 1075 -12 
Q 1325 -70 1600 -70 
Q 1850 -70 2102 -22 
Q 2355 26 2556 147 
Q 2758 269 2883 467 
Q 3008 666 3008 966 
Q 3008 1203 2915 1363 
Q 2822 1523 2672 1628 
Q 2522 1734 2326 1798 
Q 2131 1862 1926 1907 
Q 1734 1952 1542 1993 
Q 1350 2035 1196 2096 
Q 1043 2157 944 2249 
Q 845 2342 845 2483 
Q 845 2611 909 2691 
Q 973 2771 1075 2819 
Q 1178 2867 1302 2886 
Q 1427 2906 1549 2906 
Q 1683 2906 1814 2877 
Q 1946 2848 2054 2784 
Q 2163 2720 2233 2614 
Q 2304 2509 2317 2349 
L 2861 2349 
Q 2842 2650 2733 2851 
Q 2624 3053 2441 3171 
Q 2259 3290 2022 3338 
Q 1786 3386 1504 3386 
Q 1286 3386 1065 3331 
Q 845 3277 669 3165 
Q 493 3053 381 2873 
Q 269 2694 269 2445 
Q 269 2125 429 1945 
Q 589 1766 829 1667 
Q 1069 1568 1350 1513 
Q 1632 1459 1872 1392 
Q 2112 1325 2272 1216 
Q 2432 1107 2432 896 
Q 2432 742 2355 643 
Q 2278 544 2160 493 
Q 2042 442 1901 422 
Q 1760 403 1632 403 
Q 1466 403 1309 435 
Q 1152 467 1027 540 
Q 902 614 825 739 
Q 749 864 742 1043 
z
" transform="scale(0.015625)"/>
     <path id="HelveticaNeue-20" transform="scale(0.015625)"/>
     <path id="HelveticaNeue-37" d="M 3258 3994 
L 3258 4461 
L 320 4461 
L 320 3949 
L 2701 3949 
Q 2342 3571 2032 3123 
Q 1722 2675 1485 2172 
Q 1248 1670 1097 1123 
Q 947 576 909 0 
L 1517 0 
Q 1549 531 1696 1094 
Q 1843 1658 2076 2189 
Q 2310 2720 2611 3187 
Q 2912 3654 3258 3994 
z
" transform="scale(0.015625)"/>
     <path id="HelveticaNeue-32" d="M 282 2931 
L 826 2931 
Q 819 3136 867 3337 
Q 915 3539 1024 3699 
Q 1133 3859 1302 3958 
Q 1472 4058 1709 4058 
Q 1888 4058 2048 4000 
Q 2208 3942 2326 3833 
Q 2445 3725 2515 3574 
Q 2586 3424 2586 3238 
Q 2586 3002 2512 2822 
Q 2438 2643 2294 2489 
Q 2150 2336 1932 2185 
Q 1715 2035 1427 1856 
Q 1190 1715 972 1555 
Q 755 1395 582 1184 
Q 410 973 298 688 
Q 186 403 154 0 
L 3117 0 
L 3117 480 
L 787 480 
Q 826 691 950 854 
Q 1075 1018 1251 1158 
Q 1427 1299 1638 1424 
Q 1850 1549 2061 1677 
Q 2272 1811 2470 1958 
Q 2669 2106 2822 2288 
Q 2976 2470 3069 2700 
Q 3162 2931 3162 3232 
Q 3162 3552 3050 3795 
Q 2938 4038 2746 4201 
Q 2554 4365 2294 4451 
Q 2035 4538 1741 4538 
Q 1382 4538 1100 4416 
Q 819 4294 630 4080 
Q 442 3866 352 3571 
Q 262 3277 282 2931 
z
" transform="scale(0.015625)"/>
     <path id="HelveticaNeue-39" d="M 858 1094 
L 314 1094 
Q 365 506 742 218 
Q 1120 -70 1690 -70 
Q 2515 -70 2889 560 
Q 3264 1190 3264 2368 
Q 3264 3014 3139 3433 
Q 3014 3853 2803 4096 
Q 2592 4339 2310 4438 
Q 2029 4538 1709 4538 
Q 1382 4538 1107 4429 
Q 832 4320 633 4125 
Q 435 3930 326 3658 
Q 218 3386 218 3059 
Q 218 2726 310 2444 
Q 403 2163 585 1964 
Q 768 1766 1037 1654 
Q 1306 1542 1651 1542 
Q 1984 1542 2265 1712 
Q 2547 1882 2701 2170 
L 2714 2157 
Q 2688 1267 2438 835 
Q 2189 403 1690 403 
Q 1363 403 1126 582 
Q 890 762 858 1094 
z
M 2618 3021 
Q 2618 2822 2554 2640 
Q 2490 2458 2368 2320 
Q 2246 2182 2073 2102 
Q 1901 2022 1690 2022 
Q 1491 2022 1328 2102 
Q 1165 2182 1046 2316 
Q 928 2451 861 2624 
Q 794 2797 794 2982 
Q 794 3194 842 3386 
Q 890 3578 995 3728 
Q 1101 3878 1270 3968 
Q 1440 4058 1683 4058 
Q 1914 4058 2086 3974 
Q 2259 3891 2377 3747 
Q 2496 3603 2557 3417 
Q 2618 3232 2618 3021 
z
" transform="scale(0.015625)"/>
     <path id="HelveticaNeue-3a" d="M 1242 2598 
L 1242 3309 
L 531 3309 
L 531 2598 
L 1242 2598 
z
M 531 710 
L 531 0 
L 1242 0 
L 1242 710 
L 531 710 
z
" transform="scale(0.015625)"/>
     <path id="HelveticaNeue-77" d="M 3686 0 
L 4742 3309 
L 4179 3309 
L 3437 602 
L 3424 602 
L 2733 3309 
L 2138 3309 
L 1472 602 
L 1459 602 
L 710 3309 
L 109 3309 
L 1171 0 
L 1760 0 
L 2426 2630 
L 2438 2630 
L 3110 0 
L 3686 0 
z
" transform="scale(0.015625)"/>
    </defs>
    <use xlink:href="#HelveticaNeue-43"/>
    <use xlink:href="#HelveticaNeue-6f" x="72.199982"/>
    <use xlink:href="#HelveticaNeue-6e" x="129.599976"/>
    <use xlink:href="#HelveticaNeue-74" x="185.199966"/>
    <use xlink:href="#HelveticaNeue-65" x="216.699951"/>
    <use xlink:href="#HelveticaNeue-73" x="270.399948"/>
    <use xlink:href="#HelveticaNeue-74" x="320.399933"/>
    <use xlink:href="#HelveticaNeue-20" x="351.899918"/>
    <use xlink:href="#HelveticaNeue-37" x="379.699905"/>
    <use xlink:href="#HelveticaNeue-32" x="435.299896"/>
    <use xlink:href="#HelveticaNeue-39" x="490.899887"/>
    <use xlink:href="#HelveticaNeue-3a" x="546.499878"/>
    <use xlink:href="#HelveticaNeue-20" x="574.299866"/>
    <use xlink:href="#HelveticaNeue-43" x="602.099854"/>
    <use xlink:href="#HelveticaNeue-6c" x="674.299835"/>
    <use xlink:href="#HelveticaNeue-61" x="696.499832"/>
    <use xlink:href="#HelveticaNeue-75" x="750.199829"/>
    <use xlink:href="#HelveticaNeue-64" x="805.79982"/>
    <use xlink:href="#HelveticaNeue-65" x="865.099808"/>
    <use xlink:href="#HelveticaNeue-20" x="918.799805"/>
    <use xlink:href="#HelveticaNeue-77" x="946.599792"/>
    <use xlink:href="#HelveticaNeue-6f" x="1022.39978"/>
    <use xlink:href="#HelveticaNeue-6e" x="1079.799774"/>
   </g>
  </g>
  <g id="text_5">
   <!-- "We can’t be overthrown, but we can be swayed." -->
   <g transform="translate(115.493203 21.6) scale(0.09 -0.09)">
    <defs>
     <path id="HelveticaNeue-22" d="M 1594 4570 
L 1594 2918 
L 2029 2918 
L 2029 4570 
L 1594 4570 
z
M 698 4570 
L 698 2918 
L 1133 2918 
L 1133 4570 
L 698 4570 
z
" transform="scale(0.015625)"/>
     <path id="HelveticaNeue-57" d="M 4627 0 
L 5850 4570 
L 5242 4570 
L 4314 768 
L 4301 768 
L 3290 4570 
L 2630 4570 
L 1606 768 
L 1594 768 
L 698 4570 
L 77 4570 
L 1248 0 
L 1882 0 
L 2938 3840 
L 2950 3840 
L 3994 0 
L 4627 0 
z
" transform="scale(0.015625)"/>
     <path id="HelveticaNeue-63" d="M 2656 2246 
L 3219 2246 
Q 3187 2541 3065 2755 
Q 2944 2970 2755 3110 
Q 2566 3251 2320 3318 
Q 2074 3386 1792 3386 
Q 1402 3386 1107 3248 
Q 813 3110 617 2870 
Q 422 2630 326 2307 
Q 230 1984 230 1613 
Q 230 1242 329 931 
Q 429 621 624 397 
Q 819 173 1110 51 
Q 1402 -70 1779 -70 
Q 2413 -70 2781 262 
Q 3149 595 3238 1210 
L 2682 1210 
Q 2630 826 2403 614 
Q 2176 403 1773 403 
Q 1517 403 1331 505 
Q 1146 608 1030 777 
Q 915 947 860 1164 
Q 806 1382 806 1613 
Q 806 1862 857 2096 
Q 909 2330 1027 2509 
Q 1146 2688 1344 2797 
Q 1542 2906 1837 2906 
Q 2182 2906 2387 2733 
Q 2592 2560 2656 2246 
z
" transform="scale(0.015625)"/>
     <path id="HelveticaNeue-2019" d="M 531 4570 
L 531 3859 
L 909 3859 
Q 909 3750 893 3638 
Q 877 3526 832 3436 
Q 787 3347 716 3292 
Q 646 3238 538 3238 
L 538 2918 
Q 723 2918 854 2995 
Q 986 3072 1072 3200 
Q 1158 3328 1200 3497 
Q 1242 3667 1242 3859 
L 1242 4570 
L 531 4570 
z
" transform="scale(0.015625)"/>
     <path id="HelveticaNeue-62" d="M 429 4570 
L 429 0 
L 973 0 
L 973 442 
L 986 442 
Q 1075 294 1206 195 
Q 1338 96 1485 38 
Q 1632 -19 1782 -44 
Q 1933 -70 2054 -70 
Q 2432 -70 2717 64 
Q 3002 198 3190 432 
Q 3379 666 3472 979 
Q 3565 1293 3565 1645 
Q 3565 1997 3469 2310 
Q 3373 2624 3184 2864 
Q 2995 3104 2710 3245 
Q 2426 3386 2042 3386 
Q 1696 3386 1408 3261 
Q 1120 3136 986 2861 
L 973 2861 
L 973 4570 
L 429 4570 
z
M 2989 1683 
Q 2989 1440 2937 1209 
Q 2886 979 2771 800 
Q 2656 621 2467 512 
Q 2278 403 1997 403 
Q 1715 403 1516 508 
Q 1318 614 1193 787 
Q 1069 960 1011 1187 
Q 954 1414 954 1658 
Q 954 1888 1008 2112 
Q 1062 2336 1184 2512 
Q 1306 2688 1498 2797 
Q 1690 2906 1965 2906 
Q 2227 2906 2422 2803 
Q 2618 2701 2742 2528 
Q 2867 2355 2928 2134 
Q 2989 1914 2989 1683 
z
" transform="scale(0.015625)"/>
     <path id="HelveticaNeue-76" d="M 1901 0 
L 3110 3309 
L 2541 3309 
L 1638 550 
L 1626 550 
L 698 3309 
L 90 3309 
L 1318 0 
L 1901 0 
z
" transform="scale(0.015625)"/>
     <path id="HelveticaNeue-72" d="M 390 3309 
L 390 0 
L 934 0 
L 934 1472 
Q 934 1792 998 2038 
Q 1062 2285 1203 2457 
Q 1344 2630 1574 2720 
Q 1805 2810 2131 2810 
L 2131 3386 
Q 1690 3398 1402 3206 
Q 1114 3014 915 2611 
L 902 2611 
L 902 3309 
L 390 3309 
z
" transform="scale(0.015625)"/>
     <path id="HelveticaNeue-2c" d="M 531 710 
L 531 0 
L 909 0 
Q 915 -77 899 -166 
Q 883 -256 838 -342 
Q 794 -429 720 -502 
Q 646 -576 538 -614 
L 538 -934 
Q 909 -826 1075 -563 
Q 1242 -301 1242 64 
L 1242 710 
L 531 710 
z
" transform="scale(0.015625)"/>
     <path id="HelveticaNeue-79" d="M 1709 -442 
Q 1613 -685 1520 -851 
Q 1427 -1018 1315 -1123 
Q 1203 -1229 1065 -1277 
Q 928 -1325 749 -1325 
Q 653 -1325 557 -1312 
Q 461 -1299 371 -1267 
L 371 -768 
Q 442 -800 534 -822 
Q 627 -845 691 -845 
Q 858 -845 970 -765 
Q 1082 -685 1139 -538 
L 1363 19 
L 51 3309 
L 666 3309 
L 1632 602 
L 1645 602 
L 2573 3309 
L 3149 3309 
L 1709 -442 
z
" transform="scale(0.015625)"/>
    </defs>
    <use xlink:href="#HelveticaNeue-22"/>
    <use xlink:href="#HelveticaNeue-57" x="42.599991"/>
    <use xlink:href="#HelveticaNeue-65" x="129.449982"/>
    <use xlink:href="#HelveticaNeue-20" x="183.149979"/>
    <use xlink:href="#HelveticaNeue-63" x="210.949966"/>
    <use xlink:href="#HelveticaNeue-61" x="264.649963"/>
    <use xlink:href="#HelveticaNeue-6e" x="318.34996"/>
    <use xlink:href="#HelveticaNeue-2019" x="373.949951"/>
    <use xlink:href="#HelveticaNeue-74" x="399.999939"/>
    <use xlink:href="#HelveticaNeue-20" x="431.499924"/>
    <use xlink:href="#HelveticaNeue-62" x="459.299911"/>
    <use xlink:href="#HelveticaNeue-65" x="518.599899"/>
    <use xlink:href="#HelveticaNeue-20" x="572.299896"/>
    <use xlink:href="#HelveticaNeue-6f" x="600.099884"/>
    <use xlink:href="#HelveticaNeue-76" x="657.499878"/>
    <use xlink:href="#HelveticaNeue-65" x="707.499863"/>
    <use xlink:href="#HelveticaNeue-72" x="761.19986"/>
    <use xlink:href="#HelveticaNeue-74" x="794.499847"/>
    <use xlink:href="#HelveticaNeue-68" x="825.999832"/>
    <use xlink:href="#HelveticaNeue-72" x="881.599823"/>
    <use xlink:href="#HelveticaNeue-6f" x="913.149811"/>
    <use xlink:href="#HelveticaNeue-77" x="970.549805"/>
    <use xlink:href="#HelveticaNeue-6e" x="1046.349792"/>
    <use xlink:href="#HelveticaNeue-2c" x="1101.949783"/>
    <use xlink:href="#HelveticaNeue-20" x="1129.749771"/>
    <use xlink:href="#HelveticaNeue-62" x="1157.549759"/>
    <use xlink:href="#HelveticaNeue-75" x="1216.849747"/>
    <use xlink:href="#HelveticaNeue-74" x="1272.449738"/>
    <use xlink:href="#HelveticaNeue-20" x="1303.949722"/>
    <use xlink:href="#HelveticaNeue-77" x="1331.74971"/>
    <use xlink:href="#HelveticaNeue-65" x="1407.549698"/>
    <use xlink:href="#HelveticaNeue-20" x="1461.249695"/>
    <use xlink:href="#HelveticaNeue-63" x="1489.049683"/>
    <use xlink:href="#HelveticaNeue-61" x="1542.74968"/>
    <use xlink:href="#HelveticaNeue-6e" x="1596.449677"/>
    <use xlink:href="#HelveticaNeue-20" x="1652.049667"/>
    <use xlink:href="#HelveticaNeue-62" x="1679.849655"/>
    <use xlink:href="#HelveticaNeue-65" x="1739.149643"/>
    <use xlink:href="#HelveticaNeue-20" x="1792.84964"/>
    <use xlink:href="#HelveticaNeue-73" x="1820.649628"/>
    <use xlink:href="#HelveticaNeue-77" x="1870.649612"/>
    <use xlink:href="#HelveticaNeue-61" x="1946.4496"/>
    <use xlink:href="#HelveticaNeue-79" x="2000.149597"/>
    <use xlink:href="#HelveticaNeue-65" x="2050.149582"/>
    <use xlink:href="#HelveticaNeue-64" x="2103.849579"/>
    <use xlink:href="#HelveticaNeue-2e" x="2163.149567"/>
    <use xlink:href="#HelveticaNeue-22" x="2190.949554"/>
   </g>
  </g>
 </g>
 <defs>
  <clipPath id="pfb6a051f16">
   <rect x="58.9" y="43.2" width="362.3" height="162"/>
  </clipPath>
 </defs>
</svg>
